HIERARCHY
ROOT Root
{
	OFFSET 0.00 0.00 0.00
	CHANNELS 6 Xposition Yposition Zposition Xrotation Yrotation Zrotation
	JOINT L_Femur
	{
		OFFSET 2.78527 0.00000 0.00000
		CHANNELS 3 Xrotation Yrotation Zrotation
		JOINT L_Tibia
		{
			OFFSET 0.00000 -16.41095 0.00000
			CHANNELS 3 Xrotation Yrotation Zrotation
			JOINT L_Foot
			{
				OFFSET 0.00000 -14.21163 0.00000
				CHANNELS 3 Xrotation Yrotation Zrotation
				JOINT L_Toe
				{
					OFFSET 0.00000 -1.60827 6.00215
					CHANNELS 3 Xrotation Yrotation Zrotation
					End Site
					{
						OFFSET 0.00000 0.00000 2.95275
					}
				}
			}
		}
	}
	JOINT R_Femur
	{
		OFFSET -2.78527 0.00000 0.00000
		CHANNELS 3 Xrotation Yrotation Zrotation
		JOINT R_Tibia
		{
			OFFSET 0.00000 -16.41095 0.00000
			CHANNELS 3 Xrotation Yrotation Zrotation
			JOINT R_Foot
			{
				OFFSET 0.00000 -14.21163 0.00000
				CHANNELS 3 Xrotation Yrotation Zrotation
				JOINT R_Toe
				{
					OFFSET 0.00000 -1.60827 6.00215
					CHANNELS 3 Xrotation Yrotation Zrotation
					End Site
					{
						OFFSET 0.00000 0.00000 2.95275
					}
				}
			}
		}
	}
	JOINT LowerBack
	{
		OFFSET 0.00000 0.03937 0.00000
		CHANNELS 3 Xrotation Yrotation Zrotation
		JOINT Thorax
		{
			OFFSET 0.00000 7.01329 0.00000
			CHANNELS 3 Xrotation Yrotation Zrotation
			JOINT Neck
			{
				OFFSET 0.00000 7.25825 0.00000
				CHANNELS 3 Xrotation Yrotation Zrotation
				JOINT Head
				{
					OFFSET 0.00000 5.63334 0.00000
					CHANNELS 3 Xrotation Yrotation Zrotation
					End Site
					{
						OFFSET 0.00000 4.52755 0.00000
					}
				}
			}
			JOINT L_Collar
			{
				OFFSET 0.00000 7.25825 0.00000
				CHANNELS 3 Xrotation Yrotation Zrotation
				JOINT L_Humerus
				{
					OFFSET 6.91821 -0.00003 0.00000
					CHANNELS 3 Xrotation Yrotation Zrotation
					JOINT L_Elbow
					{
						OFFSET 10.34006 -0.00004 0.00000
						CHANNELS 3 Xrotation Yrotation Zrotation
						JOINT L_Wrist
						{
							OFFSET 7.25554 -0.00003 0.00000
							CHANNELS 3 Xrotation Yrotation Zrotation
							JOINT L_Thumb
							{
								OFFSET 0.00000 0.00000 0.00000
								CHANNELS 3 Xrotation Yrotation Zrotation
								End Site
								{
									OFFSET 0.00000 0.00000 3.93700
								}
							}
							JOINT L_Wrist_End
							{
								OFFSET 3.93700 -0.00001 0.00000
								CHANNELS 3 Xrotation Yrotation Zrotation
							}
						}
					}
				}
			}
			JOINT R_Collar
			{
				OFFSET 0.00000 7.25825 0.00000
				CHANNELS 3 Xrotation Yrotation Zrotation
				JOINT R_Humerus
				{
					OFFSET -6.91821 -0.00003 0.00000
					CHANNELS 3 Xrotation Yrotation Zrotation
					JOINT R_Elbow
					{
						OFFSET -10.34006 -0.00004 0.00000
						CHANNELS 3 Xrotation Yrotation Zrotation
						JOINT R_Wrist
						{
							OFFSET -7.25554 -0.00003 0.00000
							CHANNELS 3 Xrotation Yrotation Zrotation
							JOINT R_Thumb
							{
								OFFSET 0.00000 0.00000 0.00000
								CHANNELS 3 Xrotation Yrotation Zrotation
								End Site
								{
									OFFSET 0.00000 0.00000 3.93700
								}
							}
							JOINT R_Wrist_End
							{
								OFFSET -5.39369 -0.00002 0.00000
								CHANNELS 3 Xrotation Yrotation Zrotation
							}
						}
					}
				}
			}
		}
	}
}
MOTION
Frames: 11
Frame Time: 0.066664
 0.5532 32.7307 -4.7529 11.9267 -17.6129 0.6719 -16.5542 28.0470 12.8900 11.9539 -0.0000 0.0000 -12.8196 -13.5582 -10.1587 -3.9679 0.0000 0.0000 -24.7623 4.0074 -4.5731 18.6245 -0.0000 0.0000 -6.2107 2.8439 -0.6808 -9.0248 0.0000 0.0000 -6.2398 -1.5155 -9.9096 6.9985 -1.1568 6.7638 -0.9428 -45.4850 1.0646 36.4762 48.6980 -20.3002 5.0202 24.3448 3.3611 -18.4628 -36.4896 -82.9380 -0.0001 -21.3720 -0.0000 -24.2224 -1.8034 -6.4989 -0.0000 -0.0000 0.0000 -0.0000 -0.0000 0.0000 8.8948 -5.4779 -9.0356 -19.6511 28.7139 87.9414 -0.0001 31.1066 0.0000 -1.5382 7.0279 -8.7499 -0.0000 0.0000 -0.0000 -0.0000 0.0000 -0.0000
 0.7626 32.8197 -4.6420 10.5037 -18.8010 -0.2592 -14.3370 28.8486 12.8170 10.4408 -0.0000 0.0000 -12.2675 -13.1479 -9.8221 -3.8566 0.0000 0.0000 -25.0974 4.2395 -2.3526 23.6317 -0.0000 0.0000 -8.4894 2.3960 -0.0533 -9.1237 0.0000 -0.0000 -5.8937 -1.8381 -10.2433 6.2331 -1.4835 7.4456 -1.0486 -47.0411 1.1665 27.3962 52.0686 -11.8906 5.0442 23.8626 3.8749 -17.0998 -35.6271 -82.5001 -0.0001 -18.1442 -0.0000 -23.9747 -1.5334 -6.3606 -0.0000 -0.0000 0.0000 -0.0000 -0.0000 0.0000 9.0965 -5.7290 -8.7970 -19.5060 30.2533 88.0000 -0.0001 32.2061 0.0000 -1.3867 6.8685 -8.0802 -0.0000 0.0000 -0.0000 -0.0000 0.0000 -0.0000
 0.8748 32.8432 -4.4470 9.5177 -18.8761 -0.2152 -11.6796 29.3728 11.6000 8.3156 -0.0000 -0.0000 -11.6043 -13.3408 -10.0729 -3.8150 0.0000 0.0000 -24.3119 4.9856 -1.2206 25.1763 -0.0000 0.0000 -10.3915 5.5218 1.2524 -8.8535 0.0000 -0.0000 -5.8166 -2.0889 -10.5217 5.5559 -1.8473 7.6761 -0.8305 -48.7640 1.4974 18.6029 53.7758 -3.7033 4.8921 23.4839 4.3804 -15.9329 -35.3845 -82.1239 -0.0001 -16.4256 -0.0000 -23.8908 -1.2253 -6.2862 -0.0000 0.0000 -0.0000 -0.0000 0.0000 -0.0000 9.0479 -6.0537 -8.6031 -18.9266 29.1765 88.0055 -0.0001 32.1794 0.0000 -0.7080 6.5377 -8.1328 -0.0000 0.0000 -0.0000 -0.0000 0.0000 -0.0000
 0.9088 32.8203 -4.1774 8.8554 -17.3372 0.4031 -9.0076 29.8516 9.7188 5.8073 -0.0000 -0.0000 -10.7789 -14.8987 -10.4580 -3.9993 0.0000 -0.0000 -22.3312 5.3288 -1.3202 24.1261 -0.0000 0.0000 -11.3500 4.2301 0.2672 -8.9353 0.0000 -0.0000 -5.8161 -2.3473 -10.5485 5.1510 -2.2393 7.8217 -1.0825 -50.4995 1.8482 12.5221 53.8107 1.3518 4.9303 23.3239 4.2610 -15.8331 -35.6246 -81.7327 -0.0001 -16.5165 -0.0000 -22.9699 -1.0096 -6.7259 -0.0000 0.0000 -0.0000 -0.0000 0.0000 -0.0000 9.0109 -6.3943 -8.4594 -18.1018 26.5277 87.2886 -0.0001 30.7656 0.0000 -1.4807 6.7488 -7.9221 -0.0000 -0.0000 0.0000 -0.0000 -0.0000 0.0000
 0.8462 32.7435 -3.8445 8.3767 -14.9127 1.4652 -6.1006 28.7079 7.4145 3.3056 -0.0000 0.0000 -10.1445 -15.6976 -11.1290 -3.8997 0.0000 0.0000 -19.9092 4.1756 -2.4378 23.6138 -0.0000 0.0000 -13.6625 1.3636 -3.7365 -9.0644 0.0000 -0.0000 -5.8788 -2.3560 -10.4709 4.7831 -2.3508 8.1179 -0.8552 -51.9737 2.4167 7.8687 53.3264 3.8851 4.6565 23.0025 4.3824 -16.4454 -35.2725 -82.0987 -0.0001 -18.1816 -0.0000 -24.3522 -1.4570 -6.6157 -0.0000 -0.0000 0.0000 -0.0000 -0.0000 0.0000 8.9168 -6.6572 -8.5596 -17.0515 23.7320 85.9401 -0.0001 28.3441 0.0000 -2.2836 6.7037 -8.1245 -0.0000 0.0000 -0.0000 -0.0000 0.0000 -0.0000
 0.5571 32.6962 -3.5627 8.2683 -13.4238 2.0391 -5.6279 26.6783 7.0880 4.0427 -0.0000 0.0000 -10.5841 -15.0621 -10.4968 -4.0987 0.0000 0.0000 -18.4008 3.7703 -2.9539 22.2309 -0.0000 0.0000 -14.0145 0.7034 -3.6600 -9.1575 0.0000 0.0000 -5.8404 -2.1216 -10.1031 4.3498 -2.0947 8.8499 -0.7283 -52.6757 2.9605 4.1783 52.9720 5.3836 4.4262 23.2619 4.4208 -16.7091 -35.3139 -81.9784 -0.0001 -21.5588 -0.0000 -25.1894 -1.8137 -6.6420 -0.0000 -0.0000 0.0000 -0.0000 -0.0000 0.0000 8.7349 -6.3172 -8.6469 -16.6855 21.9460 84.8369 -0.0001 25.1466 0.0000 -2.5575 6.6695 -8.3559 -0.0000 0.0000 -0.0000 -0.0000 0.0000 -0.0000
 0.0637 32.6795 -3.2820 8.1166 -12.4876 1.9571 -6.6949 26.2835 8.4764 6.7211 -0.0000 0.0000 -11.7694 -15.6322 -9.0643 -4.4724 0.0000 0.0000 -16.9608 2.6752 -2.6440 21.0381 -0.0000 0.0000 -14.2483 0.8929 -2.2756 -8.9620 0.0000 0.0000 -5.7946 -1.9154 -9.6532 4.4494 -1.8811 10.0640 -0.1708 -53.0156 3.9535 0.6272 52.8958 5.9892 4.3374 23.3877 4.7491 -16.5320 -35.0528 -81.7978 -0.0001 -25.2786 -0.0000 -26.6286 -2.0748 -7.0758 -0.0000 -0.0000 0.0000 -0.0000 -0.0000 0.0000 8.5432 -5.9929 -8.7692 -16.7067 21.0438 84.1614 -0.0001 23.9964 0.0000 -1.4895 5.9413 -8.4029 -0.0000 -0.0000 0.0000 -0.0000 -0.0000 0.0000
 -0.5233 32.6546 -3.1243 8.7672 -11.4181 0.9838 -12.4234 24.4784 12.3576 15.7279 -0.0000 0.0000 -15.1268 -15.5918 -5.1321 -5.9236 0.0000 -0.0000 -16.2063 3.1842 -0.6875 19.2599 -0.0000 0.0000 -14.0610 -0.8918 -2.1207 -9.3792 0.0000 -0.0000 -5.6081 -2.1166 -8.8025 4.1081 -2.1493 11.5927 1.1162 -53.0793 5.6602 -3.1947 52.9972 6.2487 4.2494 23.7287 5.1229 -15.9137 -35.7461 -80.8477 -0.0001 -29.3428 -0.0000 -25.9989 -1.9890 -7.4466 -0.0000 -0.0000 0.0000 -0.0000 -0.0000 0.0000 8.4310 -6.2562 -8.6283 -16.7899 19.9959 83.3814 -0.0001 26.4173 0.0000 -1.7778 6.0365 -8.1614 -0.0000 0.0000 -0.0000 -0.0000 0.0000 -0.0000
 -0.9070 32.6245 -2.9821 9.0918 -10.9004 0.8863 -18.8345 25.3151 15.4378 25.6825 -0.0000 0.0000 -16.6143 -15.0323 -4.5051 -5.3872 0.0000 0.0000 -15.9428 2.2300 -0.1788 18.8581 -0.0000 0.0000 -14.3193 -0.4289 -1.4446 -8.9964 0.0000 -0.0000 -5.5156 -2.0306 -8.6022 4.4134 -2.0845 12.5614 2.1719 -53.0704 6.8042 -6.4932 52.8278 7.5234 4.3762 23.8172 5.1435 -16.1268 -36.3378 -79.6258 -0.0001 -33.0128 -0.0000 -25.9225 -2.0970 -8.1421 -0.0000 -0.0000 0.0000 -0.0000 -0.0000 0.0000 8.7424 -6.5826 -8.0150 -17.3661 18.4850 80.7461 -0.0001 30.1707 0.0000 -3.5109 6.9667 -7.6991 -0.0000 0.0000 -0.0000 -0.0000 0.0000 -0.0000
 -1.0902 32.7340 -2.7875 9.2853 -11.6494 1.5410 -22.4374 28.7219 16.5920 26.8501 -0.0000 0.0000 -17.4148 -15.3626 -5.5252 -4.8353 0.0000 -0.0000 -14.9262 2.0595 -0.4617 16.9825 -0.0000 0.0000 -13.3969 0.4177 -1.6702 -8.6127 0.0000 0.0000 -5.6188 -1.9459 -8.6402 4.5540 -2.0154 12.7824 2.4350 -52.6789 6.8185 -7.1924 53.2394 8.0672 4.3358 23.8936 5.5119 -15.0001 -37.2264 -76.4009 -0.0002 -37.7283 -0.0001 -27.1201 -2.4303 -8.7296 -0.0000 0.0000 -0.0000 -0.0000 0.0000 -0.0000 8.4408 -6.4687 -8.3312 -19.0289 17.2334 77.3390 -0.0001 32.3282 0.0000 -5.1412 7.6439 -7.0148 -0.0000 0.0000 -0.0000 -0.0000 0.0000 -0.0000
 -1.1040 32.8585 -2.5143 9.3804 -12.2170 2.2996 -24.2457 32.6210 16.4927 22.7973 -0.0000 0.0000 -15.3274 -12.8659 -4.8428 -4.2480 -0.0000 -0.0000 -13.3861 2.9426 -1.1101 14.4798 -0.0000 0.0000 -12.2785 0.0946 -1.7509 -8.5122 0.0000 -0.0000 -5.7113 -2.0996 -8.7010 4.4920 -2.2140 12.7142 1.7481 -52.3989 6.5106 -6.4968 53.7743 7.6622 3.9501 23.9264 5.7770 -14.1932 -37.5490 -72.3546 -0.0002 -42.3190 -0.0001 -28.1126 -2.3219 -8.8478 -0.0000 -0.0000 0.0000 -0.0000 -0.0000 0.0000 7.9482 -6.4893 -9.3260 -20.8836 16.1179 73.0916 -0.0002 35.9789 0.0000 -7.0622 8.4999 -7.3860 -0.0000 -0.0000 0.0000 -0.0000 -0.0000 0.0000
